<svg width="15" height="16" viewBox="0 0 15 16" fill="none" xmlns="http://www.w3.org/2000/svg">
<path id="Vector" d="M14.6261 7.39378L11.6426 9.96819L12.5515 13.8182C12.6017 14.0272 12.5888 14.2464 12.5144 14.448C12.4401 14.6497 12.3076 14.8248 12.1338 14.9512C11.96 15.0777 11.7526 15.1497 11.5379 15.1584C11.3231 15.167 11.1106 15.1118 10.9272 14.9997L7.57908 12.9391L4.22896 14.9997C4.0456 15.1111 3.83336 15.1658 3.61897 15.1569C3.40458 15.1479 3.19763 15.0758 3.02417 14.9494C2.85071 14.8231 2.71851 14.6483 2.64421 14.447C2.56991 14.2457 2.55683 14.0269 2.60661 13.8182L3.5189 9.96819L0.535415 7.39378C0.373179 7.25356 0.255847 7.06866 0.198071 6.86215C0.140296 6.65565 0.144639 6.4367 0.210557 6.23265C0.276476 6.0286 0.401048 5.8485 0.568717 5.71482C0.736386 5.58115 0.939721 5.49984 1.15333 5.48104L5.065 5.16545L6.57398 1.51367C6.65566 1.31465 6.79467 1.14441 6.97335 1.0246C7.15203 0.904792 7.3623 0.84082 7.57742 0.84082C7.79255 0.84082 8.00282 0.904792 8.1815 1.0246C8.36018 1.14441 8.49919 1.31465 8.58087 1.51367L10.0892 5.16545L14.0009 5.48104C14.2149 5.49914 14.4188 5.58 14.5871 5.71349C14.7554 5.84697 14.8805 6.02715 14.9468 6.23145C15.0132 6.43575 15.0177 6.65508 14.96 6.86195C14.9022 7.06883 14.7847 7.25407 14.6221 7.39444L14.6261 7.39378Z" fill="#2ED0D0"/>
</svg>
