<?xml version="1.0" encoding="UTF-8"?>
<svg xmlns="http://www.w3.org/2000/svg" viewBox="0 0 500 500">
  <defs>
    <style>
      .cls-1 {
        fill: #fff;
      }

      .cls-2 {
        fill: #223;
      }

      .cls-3 {
        fill: #2ed0d0;
      }

      .cls-4 {
        fill: #dd7346;
      }
    </style>
  </defs>
  <g id="Fundo">
    <rect class="cls-1" width="500" height="500"/>
  </g>
  <g id="FixIt_Texto">
    <g>
      <path class="cls-2" d="M152.19,219.1c1.09-1.08,2.19-2.13,3.3-3.18,2.28-2.14,4.62-4.21,7.01-6.22,4.73-3.98,9.68-7.7,14.81-11.15,11.47-7.72,23.85-14.07,36.82-18.85,6.05-2.23,12.25-4.13,18.61-5.23,5.83-1.02,11.75-1.36,17.66-1.41,41.5-.34,83.95,15.88,116.13,41.84,32.69,26.37,81.94,77.77,90.27,86.11,7.67,7.67,10.38,10.38,16.67,16.67,4.17,4.17,9.42,7.94,11.26,8.5s3.93.54,5.57-.45c2.33-1.42,3.02-3.96,2.61-6.65s-9.7-19.89-11.11-22.22c-26.57-43.87-43.98-68.97-79.16-108.33-9.1-10.18-25.51-23.84-31.94-29.16-9.92-8.21-22.34-15.78-34.06-21.16-20.15-9.23-42.22-14.89-64.47-14.62-4.95.06-6.08.15-13.96,1.06-4.82.56-11.57,1.27-16.22,2.5-10.55,2.8-20.85,6.8-30.19,12.49-3.2,1.95-6.28,4.09-9.35,6.23-3.72,2.59-7.45,5.18-11,8-8.51,6.76-15.95,14.76-22.77,23.19-6.65,8.22-13.32,16.82-17.92,26.38-1.55,3.22-2.86,6.56-3.91,9.98-.3.97-.58,1.95-.68,2.96-.09.88-.05,1.77.13,2.64.09.46.11.69.49.95.37.26.87.7,1.31.82s1.08-.1,1.51-.21c.99-.25,1.86-.75,2.59-1.47Z"/>
      <path class="cls-2" d="M355.56,290.43c-1.09,1.08-2.19,2.13-3.3,3.18-2.28,2.14-4.62,4.21-7.01,6.22-4.73,3.98-9.68,7.7-14.81,11.15-11.47,7.72-23.85,14.07-36.82,18.85-6.05,2.23-12.25,4.13-18.61,5.23-5.83,1.02-11.75,1.36-17.66,1.41-41.5.34-83.95-15.88-116.13-41.84-32.69-26.37-81.94-77.77-90.27-86.11-7.67-7.67-10.38-10.38-16.67-16.67-4.17-4.17-9.42-7.94-11.26-8.5s-3.93-.54-5.57.45c-2.33,1.42-3.02,3.96-2.61,6.65.41,2.7,9.7,19.89,11.11,22.22,26.57,43.87,43.98,68.97,79.16,108.33,9.1,10.18,25.51,23.84,31.94,29.16,9.92,8.21,22.34,15.78,34.06,21.16,20.15,9.23,42.22,14.89,64.47,14.62,4.95-.06,6.08-.15,13.96-1.06,4.82-.56,11.57-1.27,16.22-2.5,10.55-2.8,20.85-6.8,30.19-12.49,3.2-1.95,6.28-4.09,9.35-6.23,3.72-2.59,7.45-5.18,11-8,8.51-6.76,15.95-14.76,22.77-23.19s13.32-16.82,17.92-26.38c1.55-3.22,2.86-6.56,3.91-9.98.3-.97.58-1.95.68-2.96.09-.88.05-1.77-.13-2.64-.09-.46-.11-.69-.49-.95-.37-.26-.87-.7-1.31-.82s-1.08.1-1.51.21c-.99.25-1.86.75-2.59,1.47Z"/>
      <path class="cls-3" d="M148.7,209.55c1.09-1.08,2.19-2.13,3.3-3.18,2.28-2.14,4.62-4.21,7.01-6.22,4.73-3.98,9.68-7.7,14.81-11.15,11.47-7.72,23.85-14.07,36.82-18.85,6.05-2.23,12.25-4.13,18.61-5.23,5.83-1.02,11.75-1.36,17.66-1.41,41.5-.34,83.95,15.88,116.13,41.84,32.69,26.37,81.94,77.77,90.27,86.11,7.67,7.67,10.38,10.38,16.67,16.67,4.17,4.17,9.42,7.94,11.26,8.5s3.93.54,5.57-.45c2.33-1.42,3.02-3.96,2.61-6.65s-9.7-19.89-11.11-22.22c-26.57-43.87-43.98-68.97-79.16-108.33-9.1-10.18-25.51-23.84-31.94-29.16-9.92-8.21-22.34-15.78-34.06-21.16-20.15-9.23-42.22-14.89-64.47-14.62-4.95.06-6.08.15-13.96,1.06-4.82.56-11.57,1.27-16.22,2.5-10.55,2.8-20.85,6.8-30.19,12.49-3.2,1.95-6.28,4.09-9.35,6.23-3.72,2.59-7.45,5.18-11,8-8.51,6.76-15.95,14.76-22.77,23.19s-13.32,16.82-17.92,26.38c-1.55,3.22-2.86,6.56-3.91,9.98-.3.97-.58,1.95-.68,2.96-.09.88-.05,1.77.13,2.64.09.46.11.69.49.95.37.26.87.7,1.31.82s1.08-.1,1.51-.21c.99-.25,1.86-.75,2.59-1.47Z"/>
      <path class="cls-4" d="M352.06,280.88c-1.09,1.08-2.19,2.13-3.3,3.18-2.28,2.14-4.62,4.21-7.01,6.22-4.73,3.98-9.68,7.7-14.81,11.15-11.47,7.72-23.85,14.07-36.82,18.85-6.05,2.23-12.25,4.13-18.61,5.23-5.83,1.02-11.75,1.36-17.66,1.41-41.5.34-83.95-15.88-116.13-41.84-32.69-26.37-81.94-77.77-90.27-86.11-7.67-7.67-10.38-10.38-16.67-16.67-4.17-4.17-9.42-7.94-11.26-8.5s-3.93-.54-5.57.45c-2.33,1.42-3.02,3.96-2.61,6.65s9.7,19.89,11.11,22.22c26.57,43.87,43.98,68.97,79.16,108.33,9.1,10.18,25.51,23.84,31.94,29.16,9.92,8.21,22.34,15.78,34.06,21.16,20.15,9.23,42.22,14.89,64.47,14.62,4.95-.06,6.08-.15,13.96-1.06,4.82-.56,11.57-1.27,16.22-2.5,10.55-2.8,20.85-6.8,30.19-12.49,3.2-1.95,6.28-4.09,9.35-6.23,3.72-2.59,7.45-5.18,11-8,8.51-6.76,15.95-14.76,22.77-23.19s13.32-16.82,17.92-26.38c1.55-3.22,2.86-6.56,3.91-9.98.3-.97.58-1.95.68-2.96.09-.88.05-1.77-.13-2.64-.09-.46-.11-.69-.49-.95-.37-.26-.87-.7-1.31-.82s-1.08.1-1.51.21c-.99.25-1.86.75-2.59,1.47Z"/>
    </g>
  </g>
</svg>